<svg width="425" height="91" viewBox="0 0 425 91" fill="none" xmlns="http://www.w3.org/2000/svg">
<g clip-path="url(#clip0_1411_49)">
<path d="M120.89 64.911H112.054L129.132 22.5121C130.385 19.5169 131.901 17.7198 135.198 17.7198C138.429 17.7198 139.88 19.3838 141.133 22.4455L148.386 40.4167C149.507 43.1457 148.848 45.0759 146.474 45.0759H146.342V46.0077H146.474C148.848 46.0077 151.024 47.1392 151.881 49.2692L158.409 64.911H149.573L144.892 51.865C144.43 50.6004 142.584 49.7351 141.265 49.7351H126.824L120.89 64.911ZM135.132 28.6356L129.725 42.8129H139.089C140.144 42.8129 140.408 42.2804 140.012 41.2155L135.726 28.6356H135.132ZM163.52 64.9776V14.5249H171.235V64.9776H163.52ZM178.297 48.4704C178.297 37.2884 182.451 33.2283 192.936 33.2283C198.145 33.2283 201.178 34.2267 203.09 35.7575H203.42L204.409 33.5611L210.871 33.8939V65.976C210.871 77.4243 205.794 81.9504 193.463 81.9504C190.166 81.9504 184.891 81.0851 180.143 79.2214L181.99 71.7667C186.539 74.1629 190.694 75.0281 193.595 75.0281C200.321 75.0281 203.156 73.9632 203.156 67.0409V66.4419C203.156 65.0441 204.541 63.9126 205.662 63.9126H207.047V63.0473H205.398L192.606 64.911C182.056 64.911 178.297 59.1869 178.297 48.4704ZM186.078 48.7367C186.078 55.992 188.386 58.3216 194.716 58.3216L203.156 56.7907V41.8811C200.65 40.3502 197.617 39.7511 194.254 39.7511C188.386 39.7511 186.078 41.5483 186.078 48.7367ZM217.467 49.4023C217.467 37.0887 221.819 33.1617 234.941 33.1617C248.063 33.1617 251.953 37.1553 251.953 49.4023C251.953 61.7161 247.997 65.6432 234.875 65.6432C221.753 65.6432 217.467 61.6496 217.467 49.4023ZM224.984 49.5354C224.984 57.2566 227.82 58.9206 234.809 58.9206C242.194 58.9206 244.436 57.0569 244.436 49.5354C244.436 41.7479 241.997 39.8843 235.073 39.8843C227.622 39.8843 224.984 42.0142 224.984 49.5354ZM259.135 64.9776V49.0029C259.135 38.6862 265.663 33.4279 278.521 33.4279H280.697L279.576 40.6164H274.96C269.421 40.6164 266.85 42.8795 266.85 48.9364V64.9776H259.135ZM283.765 55.3264C283.765 49.0029 287.26 45.3422 294.579 45.3422H306.91V44.6766H305.525C304.734 44.6766 304.14 44.0775 304.14 43.3454V41.6148C304.14 39.8843 303.019 39.4849 301.173 39.4849L286.798 40.4167L287.392 35.1585C287.524 34.3598 287.985 33.9604 288.974 33.8939L302.953 32.8289C308.031 32.8289 311.921 36.29 311.921 42.6798V64.9776H304.866L304.536 63.8461H304.14C301.964 64.7113 299.129 65.3104 295.7 65.3104C288.249 65.3104 283.765 62.5814 283.765 55.3264ZM304.272 58.5878V50.9997H295.173C292.601 50.9997 291.282 52.5974 291.282 55.7257C291.282 58.7209 292.601 59.5862 295.634 59.5862H303.283C304.074 59.5862 304.272 59.3865 304.272 58.5878ZM318.581 64.9776V14.5249H326.296V64.9776H318.581ZM336.193 33.8939H343.908V64.911H336.193V33.8939ZM335.336 21.9796C335.336 18.6516 336.457 17.7863 340.149 17.7863C343.842 17.7863 344.831 18.6516 344.831 22.1127C344.831 25.5739 343.842 26.6388 340.281 26.6388C336.655 26.6388 335.336 25.5739 335.336 21.9796ZM351.581 48.4704C351.581 37.2884 355.735 33.2283 366.22 33.2283C371.429 33.2283 374.462 34.2267 376.374 35.7575H376.704L377.693 33.5611L384.155 33.8939V65.976C384.155 77.4243 379.078 81.9504 366.747 81.9504C363.45 81.9504 358.175 81.0851 353.427 79.2214L355.274 71.7667C359.824 74.1629 363.978 75.0281 366.879 75.0281C373.605 75.0281 376.44 73.9632 376.44 67.0409V66.4419C376.44 65.0441 377.825 63.9126 378.946 63.9126H380.331V63.0473H378.682L365.89 64.911C355.34 64.911 351.581 59.1869 351.581 48.4704ZM359.362 48.7367C359.362 55.992 361.67 58.3216 368 58.3216L376.44 56.7907V41.8811C373.935 40.3502 370.901 39.7511 367.538 39.7511C361.67 39.7511 359.362 41.5483 359.362 48.7367ZM391.608 33.9604H398.005L399.323 35.8907H399.653C402.554 34.4263 406.313 33.2948 410.005 33.2948C416.863 33.2948 420.49 37.2884 420.49 43.4119V64.9776H412.841V46.6733C412.841 41.4817 411.39 39.8843 407.368 39.8843C402.686 39.8843 399.785 42.0807 399.323 42.6132V64.9776H391.608V33.9604Z" fill="black"/>
<path d="M95.3388 44.0407C95.0575 66.1872 76.7903 84.0578 54.5383 83.9555C32.2862 83.8533 14.4753 65.8168 14.7568 43.6702C15.0382 21.5237 33.3052 3.65335 55.5572 3.75547C77.8099 3.85778 95.6205 21.8938 95.3388 44.0407Z" fill="#2772F0"/>
<path d="M66.7517 55.2522C66.4304 55.2209 66.2293 55.1854 66.0263 55.1845C54.5355 55.1387 43.0459 55.0975 31.5553 55.041C31.09 55.0392 30.8213 55.1835 30.5839 55.5878C29.2384 57.8911 27.8617 60.1778 26.4988 62.4702C26.3943 62.6472 26.5421 62.8726 26.747 62.8845C26.8286 62.8892 26.9067 62.8929 26.9846 62.8932C37.0045 62.9449 47.0246 62.9829 57.0443 63.0531C60.4333 63.0768 62.9484 61.6247 64.6902 58.7584C65.2829 57.7838 65.8676 56.8046 66.4534 55.8253C66.5399 55.6803 66.6103 55.526 66.7517 55.2522Z" fill="white"/>
<path d="M33.1628 51.3426L33.163 51.3437C33.3518 51.37 33.4442 51.3935 33.5356 51.3939C39.3738 51.4232 45.211 51.5028 51.0491 51.4547C54.1811 51.4287 56.5191 49.867 58.1358 47.2095C58.7784 46.1531 59.415 45.0945 60.0519 44.0344C60.1466 43.8766 60.0144 43.6715 59.8329 43.6422C59.7351 43.6265 59.6418 43.6148 59.5489 43.6153C52.4734 43.5835 45.398 43.5606 38.3215 43.5235C37.8746 43.5213 37.6439 43.6844 37.4195 44.0736C36.1033 46.3479 34.7504 48.6016 33.4111 50.8618C33.3355 50.9898 33.2743 51.1256 33.1628 51.3426V51.3426Z" fill="white"/>
<path d="M53.5944 32.135L53.5937 32.1348C53.3526 32.1174 53.187 32.0951 53.0203 32.0941C50.3737 32.0818 47.7273 32.0605 45.0809 32.0771C44.8288 32.0783 44.4648 32.2523 44.3401 32.4584C42.9352 34.7681 41.5662 37.099 40.1901 39.4249C40.083 39.6063 40.2342 39.8392 40.4438 39.8603C40.523 39.8682 40.599 39.8737 40.6754 39.8743C41.8348 39.8841 42.993 39.8963 44.1529 39.8905C47.2533 39.8757 49.6726 38.5759 51.3641 35.9785C52.0698 34.8943 52.7041 33.7652 53.3644 32.6535C53.4487 32.5122 53.5003 32.351 53.5944 32.1362L53.5944 32.135Z" fill="white"/>
<path d="M58.1369 16.7071C57.3128 15.2042 55.1598 15.1553 54.243 16.6182L50.7257 22.2323C50.287 22.9321 50.2662 23.8117 50.6705 24.5252L71.617 61.4403C72.0135 62.1389 72.7574 62.5696 73.5663 62.5695L79.4657 62.5682C81.1845 62.5678 82.2861 60.7314 81.4656 59.2351L58.1369 16.7071Z" fill="white"/>
</g>
<defs>
<clipPath id="clip0_1411_49">
<rect width="425" height="91" fill="white"/>
</clipPath>
</defs>
</svg>
