<svg width="812" height="214" viewBox="0 0 812 214" fill="none" xmlns="http://www.w3.org/2000/svg">
<path d="M184.681 106.979C184.681 149.871 149.909 184.643 107.017 184.642C64.1242 184.642 29.3525 149.871 29.3526 106.978C29.3526 64.0856 64.1239 29.3145 107.016 29.3143C149.91 29.3144 184.681 64.0854 184.681 106.979Z" fill="#2772F0"/>
<path d="M129.855 128.946C129.235 128.888 128.846 128.821 128.455 128.821C106.306 128.834 84.159 128.857 62.0098 128.85C61.113 128.85 60.5985 129.132 60.1508 129.917C57.614 134.39 55.0164 138.831 52.4456 143.282C52.2485 143.626 52.5388 144.061 52.934 144.082C53.0914 144.091 53.2422 144.097 53.3923 144.097C72.7065 144.108 92.0208 144.093 111.335 144.14C117.868 144.155 122.68 141.321 125.967 135.754C127.086 133.861 128.189 131.96 129.294 130.058C129.457 129.777 129.589 129.477 129.855 128.946Z" fill="white"/>
<path d="M65.0176 121.673C65.0166 121.674 65.0172 121.676 65.018 121.675C65.3827 121.725 65.5613 121.769 65.7374 121.769C76.991 121.774 88.244 121.876 99.4955 121.731C105.532 121.653 110 118.608 113.051 113.447C114.264 111.395 115.465 109.339 116.666 107.281C116.845 106.974 116.585 106.578 116.235 106.523C116.046 106.494 115.866 106.472 115.687 106.474C102.048 106.475 88.4099 106.493 74.7694 106.485C73.9078 106.484 73.4673 106.802 73.0442 107.558C70.563 111.974 68.0105 116.351 65.4844 120.74C65.3419 120.988 65.2273 121.252 65.0176 121.673C65.0178 121.673 65.0174 121.673 65.0176 121.673Z" fill="white"/>
<path d="M103.928 84.2932L103.927 84.2929C103.461 84.2612 103.142 84.2194 102.821 84.219C97.7189 84.2188 92.6176 84.2011 87.5171 84.2568C87.0313 84.2613 86.334 84.6015 86.0986 85.0018C83.4473 89.4875 80.8657 94.0137 78.2704 98.5305C78.0684 98.8826 78.3655 99.3323 78.7699 99.3714C78.9228 99.3859 79.0695 99.3958 79.2167 99.3963C81.4516 99.405 83.6844 99.4184 85.9199 99.3968C91.8954 99.3405 96.5267 96.8017 99.7233 91.7565C101.057 89.6505 102.252 87.4583 103.497 85.2993C103.657 85.025 103.752 84.7124 103.928 84.2955L103.928 84.2932Z" fill="white"/>
<path d="M112.306 54.3738C110.68 51.4705 106.529 51.3949 104.798 54.2362L98.1562 65.14C97.3278 66.4993 97.3091 68.2029 98.106 69.5811L139.384 140.886C140.165 142.236 141.609 143.063 143.169 143.056L154.539 143.001C157.852 142.985 159.931 139.419 158.313 136.528L112.306 54.3738Z" fill="white"/>
<path d="M230.278 145.35H213.126L246.278 63.8143C248.71 58.0543 251.654 54.5983 258.054 54.5983C264.326 54.5983 267.142 57.7983 269.574 63.6863L283.654 98.2463C285.83 103.494 284.55 107.206 279.942 107.206H279.686V108.998H279.942C284.55 108.998 288.774 111.174 290.438 115.27L303.11 145.35H285.958L276.87 120.262C275.974 117.83 272.39 116.166 269.83 116.166H241.798L230.278 145.35ZM257.926 75.5904L247.43 102.854H265.606C267.654 102.854 268.166 101.83 267.398 99.7823L259.078 75.5904H257.926ZM313.032 145.478V48.4543H328.008V145.478H313.032ZM341.716 113.734C341.716 92.2304 349.78 84.4223 370.132 84.4223C380.244 84.4223 386.132 86.3424 389.844 89.2864H390.484L392.404 85.0624L404.948 85.7024V147.398C404.948 169.414 395.092 178.118 371.156 178.118C364.756 178.118 354.516 176.454 345.3 172.87L348.884 158.534C357.716 163.142 365.78 164.806 371.412 164.806C384.468 164.806 389.972 162.758 389.972 149.446V148.294C389.972 145.606 392.66 143.43 394.836 143.43H397.524V141.766H394.324L369.492 145.35C349.012 145.35 341.716 134.342 341.716 113.734ZM356.82 114.246C356.82 128.198 361.3 132.678 373.588 132.678L389.972 129.734V101.062C385.108 98.1184 379.22 96.9664 372.692 96.9664C361.3 96.9664 356.82 100.422 356.82 114.246ZM417.752 115.526C417.752 91.8463 426.2 84.2943 451.672 84.2943C477.144 84.2943 484.696 91.9743 484.696 115.526C484.696 139.206 477.016 146.758 451.544 146.758C426.072 146.758 417.752 139.078 417.752 115.526ZM432.344 115.782C432.344 130.63 437.848 133.83 451.416 133.83C465.752 133.83 470.104 130.246 470.104 115.782C470.104 100.806 465.368 97.2223 451.928 97.2223C437.464 97.2223 432.344 101.318 432.344 115.782ZM498.636 145.478V114.758C498.636 94.9184 511.308 84.8063 536.268 84.8063H540.492L538.316 98.6303H529.356C518.604 98.6303 513.612 102.982 513.612 114.63V145.478H498.636ZM546.448 126.918C546.448 114.758 553.232 107.718 567.44 107.718H591.376V106.438H588.688C587.152 106.438 586 105.286 586 103.878V100.55C586 97.2224 583.824 96.4543 580.24 96.4543L552.336 98.2463L553.488 88.1343C553.744 86.5984 554.64 85.8303 556.56 85.7024L583.696 83.6543C593.552 83.6543 601.104 90.3103 601.104 102.598V145.478H587.408L586.768 143.302H586C581.776 144.966 576.272 146.118 569.616 146.118C555.152 146.118 546.448 140.87 546.448 126.918ZM586.256 133.19V118.598H568.592C563.6 118.598 561.04 121.67 561.04 127.686C561.04 133.446 563.6 135.11 569.488 135.11H584.336C585.872 135.11 586.256 134.726 586.256 133.19ZM614.032 145.478V48.4543H629.008V145.478H614.032ZM648.22 85.7024H663.196V145.35H648.22V85.7024ZM646.556 62.7903C646.556 56.3903 648.732 54.7263 655.9 54.7263C663.068 54.7263 664.988 56.3903 664.988 63.0463C664.988 69.7023 663.068 71.7503 656.156 71.7503C649.116 71.7503 646.556 69.7023 646.556 62.7903ZM678.091 113.734C678.091 92.2304 686.155 84.4223 706.507 84.4223C716.619 84.4223 722.507 86.3424 726.219 89.2864H726.859L728.779 85.0624L741.323 85.7024V147.398C741.323 169.414 731.467 178.118 707.531 178.118C701.131 178.118 690.891 176.454 681.675 172.87L685.259 158.534C694.091 163.142 702.155 164.806 707.787 164.806C720.843 164.806 726.347 162.758 726.347 149.446V148.294C726.347 145.606 729.035 143.43 731.211 143.43H733.899V141.766H730.699L705.867 145.35C685.387 145.35 678.091 134.342 678.091 113.734ZM693.195 114.246C693.195 128.198 697.675 132.678 709.963 132.678L726.347 129.734V101.062C721.483 98.1184 715.595 96.9664 709.067 96.9664C697.675 96.9664 693.195 100.422 693.195 114.246ZM755.791 85.8303H768.207L770.767 89.5423H771.407C777.039 86.7263 784.335 84.5504 791.503 84.5504C804.815 84.5504 811.855 92.2303 811.855 104.006V145.478H797.007V110.278C797.007 100.294 794.191 97.2223 786.383 97.2223C777.295 97.2223 771.663 101.446 770.767 102.47V145.478H755.791V85.8303Z" fill="black"/>
</svg>
