<svg width="412" height="379" viewBox="0 0 412 379" fill="none" xmlns="http://www.w3.org/2000/svg">
<rect x="0.000976562" y="0.179688" width="411.813" height="378.111" rx="23" fill="#FFF0F7"/>
<path fill-rule="evenodd" clip-rule="evenodd" d="M188.111 118.37C188.111 114.455 191.27 111.276 195.16 111.276C199.051 111.276 202.21 114.455 202.21 118.37V128.367C209.037 129.786 215.153 133.208 219.911 137.997C226.256 144.381 230.191 153.196 230.191 162.898V167.982C230.191 171.897 227.032 175.076 223.142 175.076C219.252 175.076 216.093 171.897 216.093 167.982V162.898C216.093 157.111 213.737 151.843 209.938 148.027C206.139 144.204 200.904 141.833 195.16 141.833C189.417 141.833 184.175 144.204 180.383 148.027C176.584 151.85 174.228 157.111 174.228 162.898C174.228 165.538 174.685 167.864 175.625 169.847C176.545 171.785 177.975 173.539 179.933 175.076L219.024 205.764C222.724 208.668 225.492 212.116 227.359 216.038C229.258 220.038 230.191 224.406 230.191 229.076C230.191 238.778 226.249 247.593 219.911 253.977C215.153 258.766 209.037 262.188 202.21 263.607V273.604C202.21 277.519 199.051 280.698 195.16 280.698C191.27 280.698 188.111 277.519 188.111 273.604V263.6C181.499 262.221 175.553 258.956 170.854 254.385L170.416 253.977C164.072 247.593 160.13 238.778 160.13 229.076V223.079C160.13 219.164 163.289 215.985 167.179 215.985C171.069 215.985 174.228 219.164 174.228 223.079V229.076C174.228 234.863 176.584 240.131 180.383 243.947L180.69 244.276C184.443 247.902 189.547 250.135 195.16 250.135C200.911 250.135 206.139 247.764 209.938 243.941C213.737 240.118 216.093 234.856 216.093 229.07C216.093 226.429 215.63 224.104 214.69 222.127C213.769 220.189 212.34 218.435 210.382 216.898L171.291 186.21C167.59 183.306 164.822 179.858 162.956 175.937C161.056 171.93 160.123 167.568 160.123 162.891C160.123 153.19 164.065 144.375 170.41 137.99C175.168 133.202 181.284 129.779 188.105 128.36V118.363L188.111 118.37ZM275.17 115.466C254.694 94.8609 226.406 82.1113 195.16 82.1113C163.915 82.1113 135.62 94.8609 115.145 115.466C94.6691 136.072 82 164.54 82 195.984C82 227.427 94.6691 255.902 115.145 276.508C135.62 297.113 163.909 309.863 195.16 309.863C226.412 309.863 254.694 297.113 275.17 276.508C295.645 255.902 308.314 227.434 308.314 195.984C308.314 164.534 295.645 136.072 275.17 115.466Z" fill="#FE61AC"/>
</svg>
