<svg width="412" height="379" viewBox="0 0 412 379" fill="none" xmlns="http://www.w3.org/2000/svg">
<rect x="0.000976562" y="0.654297" width="411.813" height="378.111" rx="23" fill="#EEE0FC"/>
<path d="M196.558 270.877L182.657 294.953C181.495 296.965 178.898 297.661 176.886 296.5C174.873 295.338 174.177 292.74 175.339 290.728L189.24 266.652L180.238 261.455L166.338 285.531C165.176 287.544 162.579 288.239 160.566 287.078C158.554 285.916 157.858 283.318 159.02 281.306L172.92 257.23L150.601 244.343L121.595 294.582L167.15 320.883C174.724 325.255 184.499 322.605 188.893 314.995L209.913 278.587L196.558 270.877ZM94.1981 260.322C89.804 267.933 92.3964 277.724 100.007 282.118L105.898 285.519L134.903 235.28L115.218 223.915L94.1981 260.322Z" fill="#7913E5"/>
<path d="M325.437 97.6073L214.24 33.4075C206.629 29.0135 196.875 31.6271 192.481 39.2377L105.403 190.062C101.009 197.673 103.601 207.463 111.212 211.857L222.409 276.057C230.02 280.451 239.795 277.801 244.189 270.19L331.267 119.366C335.661 111.755 333.048 102.001 325.437 97.6073ZM156.122 206.278C154.955 208.299 152.371 208.991 150.351 207.824L135.334 199.154C133.313 197.988 132.621 195.404 133.788 193.383L140.202 182.272C141.369 180.252 143.953 179.559 145.974 180.726L160.99 189.396C163.011 190.562 163.703 193.146 162.537 195.167L156.122 206.278ZM174.166 175.024C173 177.045 170.416 177.737 168.395 176.571L153.379 167.901C151.358 166.734 150.665 164.15 151.832 162.129L158.247 151.019C159.414 148.998 161.997 148.305 164.018 149.472L179.035 158.142C181.055 159.309 181.748 161.893 180.581 163.913L174.166 175.024ZM192.211 143.77C191.044 145.791 188.46 146.483 186.439 145.317L171.423 136.647C169.402 135.48 168.71 132.896 169.877 130.875L176.291 119.765C177.458 117.744 180.042 117.052 182.063 118.218L197.079 126.888C199.1 128.055 199.792 130.639 198.626 132.66L192.211 143.77ZM191.62 226.772C190.453 228.793 187.87 229.486 185.849 228.319L170.832 219.649C168.812 218.483 168.119 215.899 169.286 213.878L175.7 202.767C176.867 200.746 179.451 200.054 181.472 201.221L196.488 209.89C198.509 211.057 199.201 213.641 198.035 215.662L191.62 226.772ZM209.664 195.519C208.498 197.54 205.914 198.232 203.893 197.065L188.877 188.396C186.856 187.229 186.163 184.645 187.33 182.624L193.745 171.513C194.912 169.493 197.496 168.8 199.516 169.967L214.533 178.637C216.554 179.803 217.246 182.387 216.079 184.408L209.664 195.519ZM227.709 164.265C226.542 166.286 223.958 166.978 221.937 165.811L206.921 157.142C204.9 155.975 204.208 153.391 205.375 151.37L211.789 140.26C212.956 138.239 215.54 137.546 217.561 138.713L232.577 147.383C234.598 148.55 235.29 151.133 234.124 153.154L227.709 164.265ZM227.118 247.267C225.952 249.288 223.368 249.981 221.347 248.814L206.331 240.144C204.31 238.977 203.617 236.394 204.784 234.373L211.199 223.262C212.365 221.241 214.949 220.549 216.97 221.716L231.987 230.385C234.007 231.552 234.7 234.136 233.533 236.157L227.118 247.267ZM245.163 216.014C243.996 218.034 241.412 218.727 239.391 217.56L224.375 208.891C222.354 207.724 221.662 205.14 222.828 203.119L229.243 192.008C230.41 189.988 232.994 189.295 235.015 190.462L250.031 199.132C252.052 200.298 252.744 202.882 251.577 204.903L245.163 216.014ZM263.207 184.76C262.04 186.781 259.456 187.473 257.436 186.306L242.419 177.637C240.398 176.47 239.706 173.886 240.873 171.865L247.287 160.755C248.454 158.734 251.038 158.041 253.059 159.208L268.075 167.878C270.096 169.044 270.789 171.628 269.622 173.649L263.207 184.76ZM283.96 153.875C282.793 155.896 280.209 156.589 278.188 155.422L187.793 103.232C185.772 102.066 185.08 99.4819 186.247 97.4609L207.352 60.9066C208.518 58.8857 211.102 58.1933 213.123 59.3601L303.518 111.55C305.539 112.716 306.231 115.3 305.064 117.321L283.96 153.875Z" fill="#7913E5"/>
</svg>
