<svg width="412" height="379" viewBox="0 0 412 379" fill="none" xmlns="http://www.w3.org/2000/svg">
<rect x="0.000976562" y="0.760742" width="411.813" height="378.111" rx="23" fill="#D7F5E2"/>
<path d="M99.1277 251.822H66.7264C62.7148 251.822 59.3203 255.217 59.3203 259.228V316.316C59.3203 320.328 62.7148 323.722 66.7264 323.722H99.1277C103.139 323.722 106.534 320.328 106.534 316.316V259.228C106.842 255.217 103.448 251.822 99.1277 251.822Z" fill="#00CE4C"/>
<path d="M172.877 199.056H140.475C136.464 199.056 133.069 202.45 133.069 206.462V316.009C133.069 320.021 136.464 323.415 140.475 323.415H172.877C176.888 323.415 180.283 320.021 180.283 316.009V206.462C180.283 202.45 177.197 199.056 172.877 199.056Z" fill="#00CE4C"/>
<path d="M246.628 146.591H214.226C210.215 146.591 206.82 149.985 206.82 153.997V316.312C206.82 320.324 210.215 323.718 214.226 323.718H246.628C250.639 323.718 254.034 320.324 254.034 316.312V153.997C254.034 149.985 250.639 146.591 246.628 146.591Z" fill="#00CE4C"/>
<path d="M350.622 88.8959L309.889 40.4482C306.803 37.0537 301.557 37.0537 298.471 40.4482L257.738 88.8959C253.726 93.8332 257.121 101.239 263.292 101.239H280.573V316.322C280.573 320.334 283.967 323.728 287.979 323.728H320.38C324.392 323.728 327.786 320.334 327.786 316.322V101.239H345.067C351.239 101.239 354.942 93.8332 350.622 88.8959Z" fill="#00CE4C"/>
</svg>
