<svg width="110" height="123" viewBox="0 0 110 123" fill="none" xmlns="http://www.w3.org/2000/svg">
<g clipPath="url(#clip0_113_1259)">
<path d="M67.9419 66.9362C67.9419 58.1504 75.0919 51.0121 83.8919 51.0121H88.6219C91.3719 44.2031 92.9119 36.7353 92.9119 29.1576V19.6031C92.9119 16.1987 90.2719 13.3433 86.9719 13.1237C79.0519 12.4647 71.5719 9.06027 65.9619 3.45938L64.2019 1.81205C61.7819 -0.604018 57.4919 -0.604018 55.0719 1.81205L53.4219 3.45938C47.8119 9.06027 40.3319 12.4647 32.4119 13.1237C29.0019 13.3433 26.4719 16.1987 26.4719 19.6031V29.1576C26.4719 50.4629 37.9119 70.121 56.5019 80.554C57.4919 81.1031 58.5919 81.3228 59.6919 81.3228C60.2419 81.3228 60.7919 81.213 61.2319 81.1031V79.346C61.2319 74.9531 64.0919 71.2192 68.0519 69.7915V66.9362H67.9419ZM58.9219 50.7924C58.1519 51.5612 57.0519 52.1103 55.9519 52.1103C54.8519 52.1103 53.6419 51.5612 52.8719 50.7924L44.7319 42.0067C43.1919 40.3594 43.3019 37.7237 44.9519 36.1862C46.6019 34.6487 49.2419 34.7585 50.7819 36.4058L55.9519 42.0067L68.4919 28.4987C70.0319 26.8513 72.5619 26.7415 74.3219 28.279C75.9719 29.8165 76.0819 32.4522 74.5419 34.0996L58.9219 50.7924Z" fill="#7952FD"/>
<path d="M102.592 75.7219H99.622V66.9362C99.622 61.6648 95.332 57.3817 90.052 57.3817H83.892C78.612 57.3817 74.322 61.6648 74.322 66.9362V75.7219H71.352C69.262 75.7219 67.502 77.479 67.502 79.5656V100.542C67.502 102.628 69.262 104.385 71.352 104.385H102.592C104.682 104.385 106.442 102.628 106.442 100.542V79.4558C106.442 77.3692 104.682 75.7219 102.592 75.7219ZM88.842 90.3281L90.162 95.4897C90.272 95.8192 90.162 96.1487 89.942 96.4781C89.722 96.8076 89.392 96.9174 89.062 96.9174H84.772C84.442 96.9174 84.112 96.8076 83.892 96.4781C83.672 96.1487 83.562 95.8192 83.672 95.4897L84.992 90.3281C83.782 89.6692 83.122 88.3514 83.122 87.0335C83.122 84.9469 84.882 83.1897 86.972 83.1897C89.062 83.1897 90.822 84.9469 90.822 87.0335C90.822 88.3514 90.052 89.5594 88.842 90.3281ZM92.802 75.7219H81.142V66.9362C81.142 65.3987 82.352 64.1906 83.892 64.1906H90.052C91.592 64.1906 92.802 65.3987 92.802 66.9362V75.7219Z" fill="#7952FD"/>
</g>
<defs>
<clipPath id="clip0_113_1259">
<rect width="110" height="123" fill="white"/>
</clipPath>
</defs>
</svg>
