<svg width="97" height="120" viewBox="0 0 97 120" fill="none" xmlns="http://www.w3.org/2000/svg">
<path d="M48.5 66C31.6371 66 21.7719 68.961 21.2126 70.548C21.7719 72.039 31.6371 75 48.5 75C65.1931 75 75.0279 72.0975 75.7676 70.5C75.0279 68.9025 65.1931 66 48.5 66Z" fill="#7952FD"/>
<path d="M40.9219 89.835C42.8755 89.9205 44.9004 89.9715 46.9844 89.9895V83.991C44.964 83.973 42.9377 83.916 40.9219 83.8245V89.835Z" fill="#7952FD"/>
<path d="M31.8281 89.163C33.759 89.367 35.7839 89.5365 37.8906 89.67V83.6595C35.8415 83.5275 33.8151 83.3565 31.8281 83.151V89.163Z" fill="#7952FD"/>
<path d="M4.54688 79.5C4.54688 81.057 6.66723 82.833 10.6094 84.4755V78.711C8.13891 77.7705 6.07917 76.707 4.54688 75.5265V79.5Z" fill="#7952FD"/>
<path d="M13.6406 85.596C15.42 86.178 17.4494 86.727 19.7031 87.231V81.291C17.5418 80.832 15.5109 80.3145 13.6406 79.743V85.596Z" fill="#7952FD"/>
<path d="M22.7344 87.8535C24.6228 88.2075 26.6492 88.5255 28.7969 88.8045V82.8C26.7099 82.536 24.682 82.2285 22.7344 81.8805V87.8535Z" fill="#7952FD"/>
<path d="M50.0156 89.9895C52.0996 89.9715 54.1245 89.9205 56.0781 89.835V83.823C54.0623 83.9145 52.036 83.9715 50.0156 83.9895V89.9895Z" fill="#7952FD"/>
<path d="M68.2031 88.8045C70.3508 88.5255 72.3772 88.2075 74.2656 87.8535V81.8805C72.318 82.23 70.2901 82.536 68.2031 82.8V88.8045Z" fill="#7952FD"/>
<path d="M86.3906 84.4755C90.3328 82.833 92.4531 81.057 92.4531 79.5V75.525C90.9208 76.7055 88.8611 77.769 86.3906 78.7095V84.4755Z" fill="#7952FD"/>
<path d="M77.2969 87.231C79.5506 86.727 81.58 86.1765 83.3594 85.596V79.7445C81.4891 80.316 79.4582 80.8335 77.2969 81.2925V87.231Z" fill="#7952FD"/>
<path d="M59.1094 89.67C61.2161 89.5365 63.241 89.367 65.1719 89.163V83.151C63.1849 83.358 61.1585 83.529 59.1094 83.6595V89.67Z" fill="#7952FD"/>
<path d="M48.5 60C21.2672 60 4.54688 66.1155 4.54688 70.5C4.54688 74.8845 21.2672 81 48.5 81C75.7328 81 92.4531 74.8845 92.4531 70.5C92.4531 66.1155 75.7328 60 48.5 60ZM48.5 78C37.2404 78 18.1875 76.4205 18.1875 70.5C18.1875 64.5795 37.2404 63 48.5 63C59.7596 63 78.8125 64.5795 78.8125 70.5C78.8125 76.4205 59.7596 78 48.5 78Z" fill="#7952FD"/>
<path d="M31.8281 37.5H45.1353L48.0862 49.182C48.1817 49.554 48.8168 49.5555 48.9122 49.1805L51.8647 37.5H65.1719C66.0085 37.5 66.6875 36.828 66.6875 36V12C66.6875 11.172 66.0085 10.5 65.1719 10.5H31.8281C30.9915 10.5 30.3125 11.172 30.3125 12V36C30.3125 36.828 30.9915 37.5 31.8281 37.5ZM42.4375 27H45.4688V28.5H50.0156C50.8522 28.5 51.5312 27.828 51.5312 27C51.5312 26.172 50.8522 25.5 50.0156 25.5H46.9844C44.4775 25.5 42.4375 23.481 42.4375 21C42.4375 18.519 44.4775 16.5 46.9844 16.5V13.5H50.0156V16.5H54.5625V21H51.5312V19.5H46.9844C46.1478 19.5 45.4688 20.172 45.4688 21C45.4688 21.828 46.1478 22.5 46.9844 22.5H50.0156C52.5225 22.5 54.5625 24.519 54.5625 27C54.5625 29.481 52.5225 31.5 50.0156 31.5V34.5H46.9844V31.5H42.4375V27Z" fill="#7952FD"/>
<path d="M89.4219 27C86.0784 27 83.3594 29.691 83.3594 33C83.3594 34.737 84.1203 36.2895 85.3146 37.386L79.5021 48.069C79.2763 48.0345 79.049 48 78.8125 48C77.2681 48 75.9056 48.7695 75.0826 49.938L66.6527 47.6625C66.4753 45.342 64.5308 43.5 62.1407 43.5C59.6338 43.5 57.5938 45.519 57.5938 48C57.5938 48.8925 57.8651 49.719 58.3198 50.4195L53.0969 57.0645C54.3413 57.099 55.5841 57.147 56.8238 57.2085L60.719 52.251C61.1691 52.401 61.6405 52.5 62.1407 52.5C63.6851 52.5 65.0491 51.7305 65.8706 50.562L74.3005 52.8375C74.4778 55.158 76.4209 57 78.8125 57C81.3194 57 83.3594 54.981 83.3594 52.5C83.3594 51.3405 82.9017 50.292 82.1712 49.4925L87.9821 38.8095C88.4458 38.9235 88.9233 39 89.4219 39C92.7654 39 95.4844 36.309 95.4844 33C95.4844 29.691 92.7654 27 89.4219 27Z" fill="#7952FD"/>
<path d="M13.6406 40.5H24.25V34.5H13.6406V31.5L4.54688 37.5L13.6406 43.5V40.5Z" fill="#7952FD"/>
<path d="M83.3594 16.5L92.4531 10.5L83.3594 4.5V7.5H72.75V13.5H83.3594V16.5Z" fill="#7952FD"/>
</svg>
