<svg width="100" height="104" viewBox="0 0 100 104" fill="none" xmlns="http://www.w3.org/2000/svg">
<path d="M59.684 25.0664C54.6981 25.0664 49.8242 26.5449 45.6786 29.3149C41.533 32.0849 38.3019 36.022 36.3939 40.6284C34.4859 45.2347 33.9867 50.3034 34.9594 55.1935C35.9321 60.0835 38.333 64.5754 41.8585 68.1009C45.3841 71.6264 49.8759 74.0274 54.766 75.0001C59.656 75.9728 64.7247 75.4735 69.3311 73.5655C73.9374 71.6575 77.8745 68.4264 80.6445 64.2808C83.4145 60.1352 84.893 55.2613 84.893 50.2754C84.8853 43.592 82.2269 37.1844 77.501 32.4585C72.775 27.7325 66.3675 25.0741 59.684 25.0664ZM59.684 49.0064C61.5351 49.0056 63.3192 49.6993 64.6836 50.9504C66.048 52.2015 66.8934 53.9188 67.0527 55.7631C67.2121 57.6074 66.6737 59.4443 65.5441 60.9108C64.4145 62.3774 62.7758 63.3667 60.952 63.6834V68.5994C60.9568 68.769 60.9275 68.9378 60.8659 69.0959C60.8043 69.254 60.7116 69.3981 60.5933 69.5197C60.4751 69.6413 60.3336 69.738 60.1773 69.804C60.0211 69.8701 59.8531 69.9041 59.6835 69.9041C59.5139 69.9041 59.3459 69.8701 59.1897 69.804C59.0334 69.738 58.8919 69.6413 58.7737 69.5197C58.6554 69.3981 58.5627 69.254 58.5011 69.0959C58.4395 68.9378 58.4102 68.769 58.415 68.5994V63.6834C56.7006 63.3843 55.1464 62.4905 54.0257 61.159C52.9049 59.8276 52.2893 58.1438 52.287 56.4034C52.2822 56.2339 52.3115 56.0651 52.3731 55.907C52.4347 55.7489 52.5274 55.6048 52.6457 55.4832C52.7639 55.3616 52.9054 55.2649 53.0617 55.1989C53.2179 55.1328 53.3859 55.0988 53.5555 55.0988C53.7251 55.0988 53.8931 55.1328 54.0493 55.1989C54.2056 55.2649 54.3471 55.3616 54.4653 55.4832C54.5836 55.6048 54.6763 55.7489 54.7379 55.907C54.7995 56.0651 54.8288 56.2339 54.824 56.4034C54.8238 57.3647 55.1087 58.3044 55.6426 59.1038C56.1765 59.9031 56.9354 60.5262 57.8235 60.8942C58.7115 61.2622 59.6887 61.3586 60.6315 61.1712C61.5743 60.9838 62.4404 60.521 63.1202 59.8413C63.8 59.1617 64.2629 58.2957 64.4505 57.353C64.6382 56.4102 64.542 55.4329 64.1741 54.5448C63.8063 53.6567 63.1834 52.8976 62.3842 52.3636C61.5849 51.8295 60.6453 51.5444 59.684 51.5444C57.8328 51.5455 56.0485 50.852 54.6839 49.601C53.3194 48.35 52.4738 46.6326 52.3143 44.7883C52.1548 42.9439 52.6931 41.1069 53.8227 39.6403C54.9523 38.1736 56.5911 37.1842 58.415 36.8674V31.9514C58.4102 31.7819 58.4395 31.6131 58.5011 31.455C58.5627 31.2969 58.6554 31.1528 58.7737 31.0312C58.8919 30.9096 59.0334 30.8129 59.1897 30.7469C59.3459 30.6808 59.5139 30.6468 59.6835 30.6468C59.8531 30.6468 60.0211 30.6808 60.1773 30.7469C60.3336 30.8129 60.4751 30.9096 60.5933 31.0312C60.7116 31.1528 60.8043 31.2969 60.8659 31.455C60.9275 31.6131 60.9568 31.7819 60.952 31.9514V36.8674C62.6664 37.1666 64.2206 38.0604 65.3413 39.3918C66.4621 40.7233 67.0777 42.4071 67.08 44.1474C67.0848 44.317 67.0555 44.4858 66.9939 44.6439C66.9323 44.802 66.8396 44.9461 66.7213 45.0677C66.6031 45.1893 66.4616 45.286 66.3053 45.352C66.1491 45.418 65.9811 45.4521 65.8115 45.4521C65.6419 45.4521 65.4739 45.418 65.3177 45.352C65.1614 45.286 65.0199 45.1893 64.9017 45.0677C64.7834 44.9461 64.6907 44.802 64.6291 44.6439C64.5675 44.4858 64.5382 44.317 64.543 44.1474C64.5432 43.1861 64.2583 42.2464 63.7244 41.447C63.1904 40.6476 62.4314 40.0245 61.5433 39.6566C60.6552 39.2886 59.6779 39.1923 58.7351 39.3798C57.7923 39.5673 56.9262 40.0302 56.2465 40.7099C55.5667 41.3896 55.1038 42.2557 54.9163 43.1986C54.7288 44.1414 54.8252 45.1187 55.1931 46.0067C55.5611 46.8948 56.1842 47.6539 56.9836 48.1878C57.7829 48.7217 58.7227 49.0066 59.684 49.0064ZM59.684 14.9584H33.206C32.5417 14.9716 31.9091 15.2448 31.444 15.7192C30.9789 16.1936 30.7184 16.8316 30.7184 17.4959C30.7184 18.1603 30.9789 18.7982 31.444 19.2727C31.9091 19.7471 32.5417 20.0203 33.206 20.0334H41.438C37.9841 22.123 34.912 24.7866 32.354 27.9094H7.537C6.87274 27.9226 6.24013 28.1958 5.77502 28.6702C5.3099 29.1446 5.04938 29.7825 5.04938 30.4469C5.04938 31.1113 5.3099 31.7492 5.77502 32.2237C6.24013 32.6981 6.87274 32.9713 7.537 32.9844H28.892C26.3428 37.5141 24.8317 42.5535 24.468 47.7384H8.808C8.13515 47.7384 7.48985 48.0057 7.01407 48.4815C6.53829 48.9573 6.271 49.6026 6.271 50.2754C6.271 50.9483 6.53829 51.5936 7.01407 52.0694C7.48985 52.5452 8.13515 52.8124 8.808 52.8124H24.468C24.8844 58.738 26.7977 64.461 30.029 69.4454H18.553C18.2198 69.4454 17.8899 69.5111 17.5821 69.6386C17.2743 69.7661 16.9947 69.9529 16.7591 70.1885C16.5235 70.4241 16.3366 70.7038 16.2091 71.0116C16.0816 71.3194 16.016 71.6493 16.016 71.9824C16.016 72.3156 16.0816 72.6455 16.2091 72.9533C16.3366 73.2611 16.5235 73.5408 16.7591 73.7764C16.9947 74.012 17.2743 74.1988 17.5821 74.3263C17.8899 74.4538 18.2198 74.5194 18.553 74.5194H33.206C33.4434 74.5156 33.6791 74.4782 33.906 74.4084C36.1225 76.778 38.6534 78.8324 41.428 80.5144H26.443C25.7787 80.5276 25.1461 80.8008 24.681 81.2752C24.2159 81.7496 23.9554 82.3875 23.9554 83.0519C23.9554 83.7163 24.2159 84.3542 24.681 84.8287C25.1461 85.3031 25.7787 85.5763 26.443 85.5894H59.565C59.605 85.5894 59.644 85.5894 59.683 85.5894C69.0496 85.5894 78.0327 81.8686 84.6559 75.2453C91.2791 68.6221 95 59.6391 95 50.2724C95 40.9058 91.2791 31.9228 84.6559 25.2996C78.0327 18.6763 69.0496 14.9554 59.683 14.9554L59.684 14.9584ZM59.684 78.0214C54.1964 78.0214 48.832 76.3942 44.2691 73.3454C39.7063 70.2966 36.1501 65.9633 34.05 60.8934C31.95 55.8235 31.4005 50.2447 32.4711 44.8625C33.5417 39.4803 36.1843 34.5364 40.0646 30.6561C43.945 26.7757 48.8888 24.1332 54.271 23.0626C59.6532 21.992 65.232 22.5415 70.3019 24.6415C75.3719 26.7415 79.7052 30.2978 82.754 34.8606C85.8027 39.4234 87.43 44.7878 87.43 50.2754C87.4218 57.6316 84.4959 64.6842 79.2943 69.8858C74.0927 75.0874 67.0402 78.0132 59.684 78.0214ZM20.253 17.4964C20.2529 17.1632 20.3184 16.8332 20.4458 16.5253C20.5733 16.2174 20.7601 15.9376 20.9957 15.7019C21.2313 15.4662 21.511 15.2792 21.8189 15.1517C22.1268 15.0241 22.4568 14.9584 22.79 14.9584H26.744C27.4083 14.9716 28.0409 15.2448 28.506 15.7192C28.9711 16.1936 29.2316 16.8316 29.2316 17.4959C29.2316 18.1603 28.9711 18.7982 28.506 19.2727C28.0409 19.7471 27.4083 20.0203 26.744 20.0334H22.79C22.1171 20.0334 21.4719 19.7662 20.9961 19.2904C20.5203 18.8146 20.253 18.1693 20.253 17.4964ZM15.482 85.5894C14.8177 85.5763 14.1851 85.3031 13.72 84.8287C13.2549 84.3542 12.9944 83.7163 12.9944 83.0519C12.9944 82.3875 13.2549 81.7496 13.72 81.2752C14.1851 80.8008 14.8177 80.5276 15.482 80.5144H18.589C19.2533 80.5276 19.8859 80.8008 20.351 81.2752C20.8161 81.7496 21.0766 82.3875 21.0766 83.0519C21.0766 83.7163 20.8161 84.3542 20.351 84.8287C19.8859 85.3031 19.2533 85.5763 18.589 85.5894H15.482ZM10.082 74.5194H7.537C6.86415 74.5194 6.21885 74.2522 5.74307 73.7764C5.26729 73.3006 5 72.6553 5 71.9824C5 71.3096 5.26729 70.6643 5.74307 70.1885C6.21885 69.7127 6.86415 69.4454 7.537 69.4454H10.079C10.4122 69.4454 10.7421 69.5111 11.0499 69.6386C11.3577 69.7661 11.6373 69.9529 11.8729 70.1885C12.1085 70.4241 12.2954 70.7038 12.4229 71.0116C12.5504 71.3194 12.616 71.6493 12.616 71.9824C12.616 72.3156 12.5504 72.6455 12.4229 72.9533C12.2954 73.2611 12.1085 73.5408 11.8729 73.7764C11.6373 74.012 11.3577 74.1988 11.0499 74.3263C10.7421 74.4538 10.4122 74.5194 10.079 74.5194H10.082Z" fill="#7952FD"/>
</svg>
