<svg width="227" height="228" viewBox="0 0 227 228" fill="none" xmlns="http://www.w3.org/2000/svg">
<path fill-rule="evenodd" clip-rule="evenodd" d="M106.111 36.3697C106.111 32.4549 109.27 29.2757 113.16 29.2757C117.051 29.2757 120.21 32.4549 120.21 36.3697V46.3671C127.037 47.7859 133.153 51.2081 137.911 55.9966C144.256 62.3812 148.191 71.1962 148.191 80.8979V85.982C148.191 89.8969 145.032 93.076 141.142 93.076C137.252 93.076 134.093 89.8969 134.093 85.982V80.8979C134.093 75.111 131.737 69.8431 127.938 66.0267C124.139 62.2038 118.904 59.8326 113.16 59.8326C107.417 59.8326 102.175 62.2038 98.3831 66.0267C94.5844 69.8496 92.2281 75.111 92.2281 80.8979C92.2281 83.5385 92.685 85.8638 93.6249 87.8475C94.5452 89.7852 95.9746 91.539 97.9328 93.076L137.024 123.764C140.724 126.668 143.492 130.116 145.359 134.038C147.258 138.038 148.191 142.406 148.191 147.076C148.191 156.778 144.249 165.593 137.911 171.977C133.153 176.766 127.037 180.188 120.21 181.607V191.604C120.21 195.519 117.051 198.698 113.16 198.698C109.27 198.698 106.111 195.519 106.111 191.604V181.6C99.4993 180.221 93.5531 176.956 88.8535 172.385L88.4162 171.977C82.0719 165.593 78.1295 156.778 78.1295 147.076V141.079C78.1295 137.164 81.2886 133.985 85.1788 133.985C89.0689 133.985 92.2281 137.164 92.2281 141.079V147.076C92.2281 152.863 94.5844 158.131 98.3831 161.947L98.6899 162.276C102.443 165.902 107.547 168.135 113.16 168.135C118.911 168.135 124.139 165.764 127.938 161.941C131.737 158.118 134.093 152.856 134.093 147.07C134.093 144.429 133.63 142.104 132.69 140.127C131.769 138.189 130.34 136.435 128.382 134.898L89.2909 104.21C85.59 101.306 82.8225 97.8579 80.9557 93.9365C79.0564 89.9297 78.123 85.5682 78.123 80.8914C78.123 71.1896 82.0654 62.3746 88.4097 55.99C93.168 51.2015 99.2839 47.7793 106.105 46.3605V36.3632L106.111 36.3697ZM193.17 33.4664C172.694 12.8609 144.406 0.111328 113.16 0.111328C81.9152 0.111328 53.6202 12.8609 33.1447 33.4664C12.6691 54.072 0 82.5401 0 113.984C0 145.427 12.6691 173.902 33.1447 194.508C53.6202 215.113 81.9087 227.863 113.16 227.863C144.412 227.863 172.694 215.113 193.17 194.508C213.645 173.902 226.314 145.434 226.314 113.984C226.314 82.5335 213.645 54.072 193.17 33.4664Z" fill="#FE61AC"/>
</svg>
